<?xml version="1.0" encoding="UTF-8"?>
<svg id="Layer_2" data-name="Layer 2" xmlns="http://www.w3.org/2000/svg" viewBox="0 0 3008.11 865.36">
  <defs>
    <style>
      .cls-1 {
        fill: #00beb1;
      }

      .cls-2 {
        fill: #09033b;
      }
    </style>
  </defs>
  <g id="Layer_1-2" data-name="Layer 1">
    <path class="cls-1" d="m939.93,659.08v30.62c-20.4,11.13-43.98,16.7-70.7,16.7-21.71,0-40.13-4.36-55.25-13.08-15.12-8.72-27.08-20.74-35.9-36.04-8.82-15.31-13.22-31.87-13.22-49.68,0-28.29,10.09-52.09,30.27-71.39,20.18-19.29,45.07-28.95,74.66-28.95,20.4,0,43.09,5.34,68.05,16v29.92c-22.74-12.99-44.95-19.48-66.66-19.48s-40.76,7.03-55.46,21.08c-14.7,14.06-22.06,31.66-22.06,52.81s7.24,38.88,21.71,52.6c14.47,13.73,32.98,20.6,55.53,20.6s46.57-7.24,69.03-21.71Z"/>
    <path class="cls-1" d="m1004.66,576.14v29.36l1.39-2.23c12.25-19.76,24.49-29.64,36.74-29.64,9.55,0,19.54,4.83,29.92,14.47l-13.36,22.27c-8.82-8.35-16.98-12.52-24.49-12.52-8.16,0-15.24,3.9-21.22,11.69-5.98,7.79-8.98,17.03-8.98,27.69v66.94h-25.47v-128.03h25.47Z"/>
    <path class="cls-1" d="m1151.36,575.86c19.48,0,35.68,6.29,48.57,18.86,12.89,12.58,19.34,28.37,19.34,47.39s-6.54,33.8-19.62,45.99c-13.08,12.2-29.56,18.3-49.4,18.3s-35.26-6.19-48.15-18.58c-12.89-12.39-19.34-27.85-19.34-46.41s6.52-34.35,19.55-46.83c13.03-12.47,29.38-18.72,49.06-18.72Zm-1.39,22.82c-12.16,0-22.13,3.99-29.92,11.97-7.79,7.98-11.69,18.14-11.69,30.48s3.98,22.25,11.97,29.99c7.98,7.75,18.23,11.62,30.76,11.62s22.61-3.91,30.55-11.76c7.93-7.84,11.9-17.88,11.9-30.13s-4.12-22.21-12.39-30.2c-8.26-7.98-18.65-11.97-31.17-11.97Z"/>
    <path class="cls-1" d="m1359.17,611.21v92.96h-25.47v-71.25c0-14.19-1.9-24.09-5.71-29.71-3.81-5.61-10.44-8.42-19.9-8.42-5.29,0-10.14,1.21-14.54,3.62-4.4,2.42-9.45,6.68-15.1,12.8v92.96h-25.33v-128.03h25.33v16.84c12.89-12.89,25.52-19.34,37.85-19.34,16.23,0,28.81,7.71,37.71,23.1,13.55-15.59,27.69-23.38,42.45-23.38,12.44,0,22.67,4.55,30.69,13.64,8.02,9.1,12.04,22.96,12.04,41.61v75.57h-25.33v-75.84c0-10.66-2.17-18.83-6.54-24.49-4.37-5.65-10.63-8.49-18.79-8.49-10.49,0-20.27,5.29-29.36,15.86Z"/>
    <path class="cls-1" d="m1462.86,596.46l47.59-46.76v26.44h40.5v22.82h-40.5v62.66c0,14.64,6.07,21.95,18.23,21.95,9.1,0,18.7-3.01,28.81-9.05v23.66c-9.74,5.48-20.37,8.21-31.87,8.21s-21.24-3.38-28.95-10.16c-2.42-2.04-4.4-4.33-5.98-6.89-1.58-2.55-2.91-5.89-3.97-10.02-1.06-4.12-1.6-11.99-1.6-23.59v-56.78h-22.27v-2.5Z"/>
    <path class="cls-1" d="m1691.67,642.38h-90.04c.64,12.25,4.75,21.99,12.32,29.22,7.57,7.24,17.33,10.85,29.29,10.85,16.7,0,32.09-5.19,46.2-15.59v24.77c-7.79,5.2-15.52,8.91-23.17,11.13-7.65,2.23-16.63,3.34-26.93,3.34-14.11,0-25.52-2.92-34.23-8.77-8.72-5.84-15.71-13.71-20.94-23.59-5.24-9.88-7.86-21.31-7.86-34.3,0-19.48,5.51-35.32,16.56-47.52,11.05-12.19,25.38-18.3,43-18.3s30.53,5.94,40.64,17.81c10.11,11.88,15.17,27.79,15.17,47.73v3.2Zm-89.48-15.17h64.43c-.64-10.11-3.67-17.9-9.05-23.38-5.38-5.47-12.61-8.21-21.71-8.21s-16.54,2.74-22.34,8.21c-5.79,5.48-9.58,13.27-11.34,23.38Z"/>
    <path class="cls-1" d="m1725.92,509.76h25.33v194.41h-25.33v-194.41Zm83.34,66.38h30.08l-54.62,62.62,65.76,65.41h-33.97l-64.14-65.34,56.9-62.69Z"/>
    <path class="cls-2" d="m1974.64,622.71l-21.15-12.86c-13.27-8.1-22.7-16.06-28.32-23.91-5.62-7.84-8.42-16.86-8.42-27.07,0-15.31,5.31-27.74,15.93-37.3,10.63-9.55,24.42-14.33,41.4-14.33s31.12,4.56,44.67,13.67v31.59c-14-13.47-29.09-20.21-45.23-20.21-9.1,0-16.56,2.1-22.41,6.31-5.84,4.21-8.77,9.59-8.77,16.15,0,5.82,2.16,11.27,6.45,16.35,4.31,5.09,11.24,10.42,20.77,16.01l21.26,12.59c23.71,14.16,35.57,32.19,35.57,54.08,0,15.59-5.22,28.25-15.66,37.99-10.44,9.74-24.01,14.61-40.71,14.61-19.2,0-36.69-5.9-52.46-17.71v-35.35c15.03,19.05,32.43,28.56,52.19,28.56,8.72,0,15.99-2.43,21.78-7.28,5.79-4.85,8.7-10.93,8.7-18.24,0-11.83-8.54-23.05-25.61-33.67Z"/>
    <path class="cls-2" d="m2121.61,575.86c19.48,0,35.68,6.29,48.57,18.86,12.89,12.58,19.34,28.37,19.34,47.39s-6.54,33.8-19.62,45.99c-13.08,12.2-29.56,18.3-49.4,18.3s-35.26-6.19-48.15-18.58c-12.89-12.39-19.34-27.85-19.34-46.41s6.52-34.35,19.55-46.83c13.03-12.47,29.38-18.72,49.06-18.72Zm-1.39,22.82c-12.16,0-22.13,3.99-29.92,11.97-7.79,7.98-11.69,18.14-11.69,30.48s3.98,22.25,11.97,29.99c7.98,7.75,18.23,11.62,30.76,11.62s22.61-3.91,30.55-11.76c7.93-7.84,11.9-17.88,11.9-30.13s-4.12-22.21-12.39-30.2c-8.26-7.98-18.65-11.97-31.17-11.97Z"/>
    <path class="cls-2" d="m2225.03,509.76h25.33v194.41h-25.33v-194.41Z"/>
    <path class="cls-2" d="m2375.36,704.17v-16.42c-5.38,5.89-11.53,10.47-18.44,13.74-6.91,3.27-13.79,4.91-20.67,4.91-8.07,0-15.52-2.02-22.34-6.05-6.82-4.04-11.97-9.51-15.45-16.42-3.48-6.91-5.22-18.39-5.22-34.44v-73.34h25.33v72.97c0,13.44,1.93,22.82,5.78,28.15,3.84,5.33,10.59,7.99,20.25,7.99,12.06,0,22.32-5.89,30.76-17.67v-91.43h25.33v128.03h-25.33Z"/>
    <path class="cls-2" d="m2425.2,596.46l47.59-46.76v26.44h40.5v22.82h-40.5v62.66c0,14.64,6.07,21.95,18.23,21.95,9.1,0,18.7-3.01,28.81-9.05v23.66c-9.74,5.48-20.37,8.21-31.87,8.21s-21.24-3.38-28.95-10.16c-2.42-2.04-4.4-4.33-5.98-6.89-1.58-2.55-2.91-5.89-3.97-10.02-1.06-4.12-1.6-11.99-1.6-23.59v-56.78h-22.27v-2.5Z"/>
    <path class="cls-2" d="m2557.98,522.28c4.17,0,7.74,1.44,10.72,4.31,2.97,2.88,4.45,6.4,4.45,10.58s-1.48,7.61-4.45,10.58c-2.97,2.97-6.54,4.45-10.72,4.45-3.9,0-7.32-1.5-10.3-4.52-2.97-3.01-4.45-6.51-4.45-10.51s1.48-7.35,4.45-10.37c2.97-3.01,6.4-4.52,10.3-4.52Zm-12.52,53.86h25.33v128.03h-25.33v-128.03Z"/>
    <path class="cls-2" d="m2675.45,575.86c19.48,0,35.68,6.29,48.57,18.86,12.89,12.58,19.34,28.37,19.34,47.39s-6.54,33.8-19.62,45.99c-13.08,12.2-29.56,18.3-49.4,18.3s-35.26-6.19-48.15-18.58c-12.89-12.39-19.34-27.85-19.34-46.41s6.52-34.35,19.55-46.83c13.03-12.47,29.38-18.72,49.06-18.72Zm-1.39,22.82c-12.16,0-22.13,3.99-29.92,11.97-7.79,7.98-11.69,18.14-11.69,30.48s3.98,22.25,11.97,29.99c7.98,7.75,18.23,11.62,30.76,11.62s22.61-3.91,30.55-11.76c7.93-7.84,11.9-17.88,11.9-30.13s-4.12-22.21-12.39-30.2c-8.26-7.98-18.65-11.97-31.17-11.97Z"/>
    <path class="cls-2" d="m2803.64,576.14v16.28c11.32-12.52,24.16-18.79,38.55-18.79,7.98,0,15.4,2.07,22.27,6.19,6.87,4.13,12.09,9.79,15.66,16.98,3.57,7.19,5.36,18.58,5.36,34.16v73.2h-25.33v-72.92c0-13.08-2-22.42-5.98-28.04-3.98-5.61-10.66-8.42-20.04-8.42-11.97,0-22.13,5.98-30.48,17.95v91.43h-25.88v-128.03h25.88Z"/>
    <path class="cls-2" d="m2921.41,694.98v-27.28c7.15,5.01,14.46,9.07,21.92,12.18,7.46,3.11,13.76,4.66,18.86,4.66s9.83-1.3,13.64-3.9c3.81-2.59,5.71-5.71,5.71-9.32s-1.24-6.79-3.69-9.25c-2.45-2.45-7.78-6-15.93-10.65-16.33-9.09-27.02-16.86-32.08-23.31-5.06-6.45-7.58-13.47-7.58-21.08,0-9.83,3.83-17.86,11.48-24.08,7.65-6.21,17.52-9.32,29.57-9.32s25.38,3.53,38.55,10.58v25.05c-15.03-9.09-27.33-13.64-36.88-13.64-4.92,0-8.89,1.04-11.9,3.13-3.01,2.1-4.52,4.85-4.52,8.3,0,2.97,1.36,5.8,4.11,8.5,2.71,2.69,7.51,5.94,14.39,9.74l9.05,5.14c21.34,12.06,32.03,25.41,32.03,40.07,0,10.48-4.11,19.09-12.32,25.81-8.21,6.73-18.77,10.09-31.66,10.09-7.6,0-14.39-.82-20.32-2.44-5.93-1.62-13.41-4.61-22.41-8.98Z"/>
    <g>
      <path class="cls-1" d="m569.84,419.68c-62.7,47.56-108.3,91.91-139.12,126.12-36.52,40.25-52.73,66.26-52.73,66.26l216.6,192.56,68.4,60.75-1.96-88.18-8.72-415.22m0,0l-4.45-204.49-3.39-157.47-93.52,123.62L0,851.46,559.15,252.41l10.69,167.27m5.8,74.15l13.36,208.05-91.38-91.74s17.46-48.81,78.02-116.32"/>
      <path class="cls-2" d="m663,394.09c222.31-142.5,597.7-288.31,1186.96-264.09v4.28c-671.91,11.04-1015.05,179.12-1185.34,319.31l-1.62-59.5Z"/>
    </g>
  </g>
</svg>