<svg id="Layer_1" data-name="Layer 1" xmlns="http://www.w3.org/2000/svg" xmlns:xlink="http://www.w3.org/1999/xlink" viewBox="0 0 650 520"><defs><style>.cls-1,.cls-10,.cls-12,.cls-13,.cls-2,.cls-3,.cls-32,.cls-4,.cls-46{fill:none;}.cls-1,.cls-10,.cls-2,.cls-3,.cls-32,.cls-4,.cls-46{stroke-miterlimit:10;}.cls-1{stroke:url(#linear-gradient);}.cls-2{stroke:url(#linear-gradient-2);}.cls-3{stroke:url(#linear-gradient-3);}.cls-4{stroke:url(#linear-gradient-4);}.cls-5{fill:url(#linear-gradient-5);}.cls-6,.cls-7,.cls-8{opacity:0.12;}.cls-6{fill:url(#linear-gradient-6);}.cls-7{fill:url(#linear-gradient-7);}.cls-8{fill:url(#linear-gradient-8);}.cls-9{fill:url(#linear-gradient-9);}.cls-10{stroke-width:2.04px;stroke:url(#linear-gradient-10);}.cls-11{fill:url(#linear-gradient-11);}.cls-12,.cls-13{stroke-linejoin:round;stroke-width:2.22px;}.cls-12{stroke:url(#linear-gradient-12);}.cls-13{stroke:url(#linear-gradient-13);}.cls-14{fill:url(#linear-gradient-14);}.cls-15{fill:#dfebf2;}.cls-16{fill:url(#linear-gradient-15);}.cls-17{fill:url(#linear-gradient-16);}.cls-18{fill:#aac3cc;}.cls-19{fill:#f1f2f2;}.cls-20{fill:#0562e8;}.cls-21{fill:#ed9a15;}.cls-22{fill:#a7a9ac;}.cls-23{fill:#a8c6cc;}.cls-24{fill:#3dba85;}.cls-25{fill:#fff;}.cls-26{fill:#cae8ef;}.cls-27{fill:#8ca7af;}.cls-28{fill:#809aa0;}.cls-29{fill:url(#linear-gradient-17);}.cls-30{fill:url(#linear-gradient-18);}.cls-31{fill:url(#linear-gradient-19);}.cls-32{stroke:#fff;stroke-width:2.25px;}.cls-33{fill:url(#linear-gradient-20);}.cls-34{fill:url(#linear-gradient-21);}.cls-35{fill:url(#linear-gradient-22);}.cls-36{fill:url(#linear-gradient-23);}.cls-37{fill:url(#linear-gradient-24);}.cls-38{fill:url(#linear-gradient-25);}.cls-39,.cls-40{opacity:0.84;}.cls-39{fill:url(#linear-gradient-26);}.cls-40{fill:url(#linear-gradient-27);}.cls-41{fill:url(#linear-gradient-28);}.cls-42{fill:url(#linear-gradient-29);}.cls-43{fill:url(#linear-gradient-30);}.cls-44{fill:#f6ce6e;}.cls-45{fill:#f8ad36;}.cls-46{stroke:#374a66;stroke-width:0.45px;opacity:0.76;}.cls-47{fill:#374a66;}.cls-48{fill:url(#linear-gradient-31);}.cls-49{fill:url(#linear-gradient-34);}</style><linearGradient id="linear-gradient" x1="85.87" y1="325.26" x2="116.57" y2="317" gradientUnits="userSpaceOnUse"><stop offset="0" stop-color="#d35400"/><stop offset="1" stop-color="#ffb62d"/></linearGradient><linearGradient id="linear-gradient-2" x1="128.35" y1="399.37" x2="225.83" y2="399.37" gradientUnits="userSpaceOnUse"><stop offset="0" stop-color="#05a1e8"/><stop offset="1" stop-color="#0562e8"/></linearGradient><linearGradient id="linear-gradient-3" x1="4453.26" y1="1956.73" x2="4466.19" y2="1956.73" gradientTransform="translate(5032.8 2222.39) rotate(180)" xlink:href="#linear-gradient-2"/><linearGradient id="linear-gradient-4" x1="426.44" y1="334.46" x2="567.11" y2="334.46" xlink:href="#linear-gradient-2"/><linearGradient id="linear-gradient-5" x1="106.65" y1="170.96" x2="126.4" y2="170.96" gradientUnits="userSpaceOnUse"><stop offset="0" stop-color="#db1162"/><stop offset="1" stop-color="#ff6817"/></linearGradient><linearGradient id="linear-gradient-6" x1="385.36" y1="66.58" x2="598.72" y2="66.58" xlink:href="#linear-gradient-2"/><linearGradient id="linear-gradient-7" x1="56.41" y1="104.27" x2="209.1" y2="104.27" xlink:href="#linear-gradient-2"/><linearGradient id="linear-gradient-8" x1="164.14" y1="533.37" x2="509.64" y2="408.69" xlink:href="#linear-gradient-2"/><linearGradient id="linear-gradient-9" x1="333.15" y1="159.62" x2="353.5" y2="159.62" xlink:href="#linear-gradient"/><linearGradient id="linear-gradient-10" x1="180.17" y1="104.35" x2="275.08" y2="104.19" xlink:href="#linear-gradient"/><linearGradient id="linear-gradient-11" x1="566.18" y1="121.32" x2="654.08" y2="121.32" gradientTransform="matrix(0.97, 0, 0.45, 1.03, -414.18, -25.17)" xlink:href="#linear-gradient"/><linearGradient id="linear-gradient-12" x1="4271.54" y1="2042.45" x2="4339.76" y2="2042.45" gradientTransform="translate(4860.17 2219.31) rotate(180)" xlink:href="#linear-gradient-2"/><linearGradient id="linear-gradient-13" x1="4245.45" y1="2018.15" x2="4284.11" y2="2018.15" gradientTransform="translate(4860.17 2219.31) rotate(180)" xlink:href="#linear-gradient-2"/><linearGradient id="linear-gradient-14" x1="4245.66" y1="2054.31" x2="4328.81" y2="2054.31" gradientTransform="translate(4860.17 2219.31) rotate(180)" xlink:href="#linear-gradient-2"/><linearGradient id="linear-gradient-15" x1="348.87" y1="430.96" x2="496.49" y2="430.96" gradientTransform="matrix(0.99, 0, 0.08, 1.01, -121.22, -11.79)" gradientUnits="userSpaceOnUse"><stop offset="0" stop-color="#4279e8"/><stop offset="1" stop-color="#42c2e8"/></linearGradient><linearGradient id="linear-gradient-16" x1="348.87" y1="471" x2="496.49" y2="471" xlink:href="#linear-gradient-15"/><linearGradient id="linear-gradient-17" x1="396.04" y1="289.92" x2="454.64" y2="289.92" xlink:href="#linear-gradient"/><linearGradient id="linear-gradient-18" x1="3783.66" y1="7235.4" x2="3823.95" y2="7235.4" gradientTransform="translate(-2698.25 -7233.62) rotate(5.26)" xlink:href="#linear-gradient"/><linearGradient id="linear-gradient-19" x1="3783.66" y1="7246.9" x2="3823.95" y2="7246.9" gradientTransform="translate(-2697.2 -7256.57) rotate(5.26)" xlink:href="#linear-gradient"/><linearGradient id="linear-gradient-20" x1="-212" y1="1047.13" x2="-189.27" y2="1047.13" gradientTransform="translate(580.14 -779.28)" gradientUnits="userSpaceOnUse"><stop offset="0" stop-color="#3dba85"/><stop offset="1" stop-color="#1de885"/></linearGradient><linearGradient id="linear-gradient-21" x1="-439.89" y1="1917.84" x2="-417.16" y2="1917.84" gradientTransform="translate(823.59 -1675.11)" xlink:href="#linear-gradient-20"/><linearGradient id="linear-gradient-22" x1="2778.39" y1="-223.98" x2="2801.13" y2="-223.98" gradientTransform="matrix(1, 0, 0, -1, -2322.52, 43.87)" xlink:href="#linear-gradient-20"/><linearGradient id="linear-gradient-23" x1="955.74" y1="-847.99" x2="978.48" y2="-847.99" gradientTransform="matrix(1, 0, 0, -1, -542.81, -615.35)" xlink:href="#linear-gradient-20"/><linearGradient id="linear-gradient-24" x1="1854.73" y1="-378.59" x2="1877.47" y2="-378.59" gradientTransform="matrix(1, 0, 0, -1, -1411.46, -137.14)" xlink:href="#linear-gradient-20"/><linearGradient id="linear-gradient-25" x1="116.52" y1="276.18" x2="533.34" y2="276.18" xlink:href="#linear-gradient"/><linearGradient id="linear-gradient-26" x1="333.1" y1="277.19" x2="350" y2="341.97" gradientUnits="userSpaceOnUse"><stop offset="0"/><stop offset="1" stop-opacity="0"/></linearGradient><linearGradient id="linear-gradient-27" x1="324.34" y1="321.4" x2="294.16" y2="203.12" xlink:href="#linear-gradient-26"/><linearGradient id="linear-gradient-28" x1="173.74" y1="280.41" x2="279.26" y2="280.41" xlink:href="#linear-gradient-2"/><linearGradient id="linear-gradient-29" x1="1652.46" y1="335.39" x2="1670.07" y2="335.39" gradientTransform="matrix(-0.57, 0.82, 0.82, 0.57, 755.27, -1348.78)" gradientUnits="userSpaceOnUse"><stop offset="0" stop-color="#ebf2fc"/><stop offset="1" stop-color="#84adef"/></linearGradient><linearGradient id="linear-gradient-30" x1="2044.33" y1="-3044.25" x2="2050.92" y2="-3044.25" gradientTransform="matrix(-0.18, -0.98, -0.98, 0.18, -2544.91, 2768.98)" xlink:href="#linear-gradient-29"/><linearGradient id="linear-gradient-31" x1="1755.4" y1="204.74" x2="1771.07" y2="204.74" gradientTransform="matrix(-1, 0, 0, 1, 1788.61, 0)" xlink:href="#linear-gradient-5"/><linearGradient id="linear-gradient-34" x1="438.45" y1="113.34" x2="470.83" y2="113.34" gradientTransform="matrix(1, 0, 0, 1, 0, 0)" xlink:href="#linear-gradient-20"/></defs><polyline class="cls-1" points="128.85 385.68 104.98 385.68 104.98 276.31 73.33 276.31 73.33 256.29"/><polyline class="cls-2" points="225.83 406.7 199.81 406.7 199.81 431.66 128.85 431.66 128.85 370.33 163.54 370.33 163.54 366.57"/><circle class="cls-3" cx="573.08" cy="265.66" r="5.97"/><polyline class="cls-4" points="426.94 386.16 426.94 403.26 547.01 403.26 547.01 265.66 567.11 265.66"/><path class="cls-5" d="M114.55,163.24,107,176.4a2.28,2.28,0,0,0,2,3.42h15.21a2.28,2.28,0,0,0,2-3.42l-7.6-13.16A2.28,2.28,0,0,0,114.55,163.24Z"/><path class="cls-6" d="M598.45,111.18c-.1.73-.21,1.44-.37,2.16H385.41v-.09C384.5,97.13,396.57,83.74,413.76,82c2.33-.24,3.62-.89,4.72-3.09,8.13-16.22,21.42-24,39.53-23.11,3.45.16,5.13-.67,6.72-3.83,11.35-22.4,36-35.31,59.65-31.47,26.45,4.33,45.84,23.7,49.53,49.74.41,2.84,1.58,4,4,5.12C592.17,82,600.35,96.36,598.45,111.18Z"/><path class="cls-7" d="M56.6,136.19c.07.52.15,1,.26,1.54H209.07v-.06c.65-11.54-8-21.12-20.29-22.37a3.58,3.58,0,0,1-3.38-2.21c-5.82-11.61-15.33-17.18-28.29-16.54-2.47.12-3.67-.48-4.81-2.74-8.12-16-25.8-25.27-42.69-22.52-18.93,3.1-32.81,17-35.45,35.6a4.13,4.13,0,0,1-2.83,3.66C61.09,115.29,55.24,125.58,56.6,136.19Z"/><ellipse class="cls-8" cx="332.5" cy="472.62" rx="164.13" ry="27.55"/><circle class="cls-9" cx="343.33" cy="159.62" r="10.17"/><path class="cls-10" d="M253.65,149.42l-12.35,0a6.4,6.4,0,0,1-3.32-3.22c-1.08-2.14-2.36-4.26-3.52-6.39a1.67,1.67,0,0,0-1.09-.9c-2.78-1-5.56-2-8.33-3-.53-.2-.82-.22-1.07.11-1.06,1.47-2.17,2.89-3.28,4.33-.88,1.14-2.14,1.06-3.95-.25l-10.62-7.66q-2.62-1.9-2-4c.54-1.84,1.09-3.67,1.67-5.48.12-.4.05-.68-.37-1.17q-3.13-3.7-6.2-7.46a1.5,1.5,0,0,0-1.11-.68c-2.29-.25-4.6-.56-6.9-.82a4.7,4.7,0,0,1-3.92-3L182.52,99c-.83-1.89-.37-2.88,1.35-3.1,2-.25,4-.57,6.1-.82.45-.05.5-.29.47-.72-.16-2.47-.28-4.94-.36-7.39a1.47,1.47,0,0,0-.68-1.24c-2.17-1.81-4.32-3.64-6.48-5.47-1.62-1.37-2.14-2.71-1.52-3.93q1.95-3.92,3.95-7.81c.62-1.22,1.85-1.29,3.62-.22q3.59,2.16,7.16,4.36c.49.3.76.3,1.09.11,1.88-1.06,3.78-2.1,5.71-3.1.33-.17.48-.33.31-.83-.78-2.31-1.49-4.61-2.26-6.91-.6-1.81-.07-2.77,1.62-2.77l10.35,0A4.58,4.58,0,0,1,217,61.84c1.24,2.28,2.53,4.55,3.76,6.83a1.84,1.84,0,0,0,1.17,1q4.11,1.44,8.24,3c.57.22.87.22,1.12-.13,1.07-1.46,2.18-2.89,3.29-4.32.83-1.08,2.12-1,3.81.19l10.8,7.79c1.7,1.23,2.36,2.57,2,3.93-.55,1.85-1.11,3.71-1.69,5.54-.12.37,0,.64.35,1.1,2.11,2.5,4.18,5,6.3,7.52a2,2,0,0,0,1,.62c2.18.31,4.36.64,6.48.8a5.49,5.49,0,0,1,3.93,2l5.74,13c0,1.35-.81,1.9-2.17,2-1.95.17-3.8.53-5.71.77-.46.06-.57.25-.54.73q.24,3.72.35,7.39a1.49,1.49,0,0,0,.7,1.24c2.17,1.8,4.32,3.63,6.48,5.46,1.61,1.37,2.12,2.7,1.51,3.93q-2,3.92-3.94,7.8c-.62,1.22-1.86,1.3-3.62.24q-3.54-2.13-7.07-4.3c-.55-.34-.86-.38-1.25-.15-1.84,1.06-3.73,2.08-5.65,3.06-.37.19-.46.4-.29.91.71,2.13,1.31,4.25,2.1,6.38C254.69,147.68,254.64,148.76,253.65,149.42Zm-47.38-45.1c5.48,12.42,19.48,22.52,31.26,22.53s16.94-10.2,11.46-22.64S229.51,81.7,217.74,81.69,200.79,91.89,206.27,104.32Z"/><path class="cls-11" d="M260,143.61l-12.35,0a6.4,6.4,0,0,1-3.32-3.22c-1.09-2.14-2.36-4.26-3.52-6.39a1.67,1.67,0,0,0-1.09-.9c-2.78-1-5.56-2-8.33-3-.53-.2-.82-.22-1.07.12-1.06,1.46-2.17,2.89-3.28,4.32-.88,1.14-2.14,1.06-4-.25l-10.62-7.66q-2.62-1.9-2-4c.54-1.83,1.09-3.67,1.67-5.48.12-.39,0-.68-.37-1.17q-3.15-3.7-6.2-7.46a1.5,1.5,0,0,0-1.11-.68c-2.29-.25-4.6-.56-6.9-.82a4.7,4.7,0,0,1-3.92-3l-4.77-10.84c-.83-1.89-.37-2.88,1.35-3.1,2-.25,4.05-.57,6.1-.82.45,0,.49-.28.47-.71-.16-2.48-.28-5-.36-7.39a1.49,1.49,0,0,0-.68-1.25c-2.17-1.8-4.33-3.64-6.48-5.47-1.62-1.37-2.14-2.7-1.52-3.93q2-3.92,4-7.81c.62-1.22,1.85-1.29,3.62-.22q3.58,2.16,7.16,4.36c.49.3.76.31,1.09.11,1.88-1.06,3.78-2.1,5.71-3.1.33-.17.48-.33.31-.83-.78-2.31-1.49-4.61-2.26-6.91-.6-1.81-.07-2.77,1.62-2.77l10.35,0A4.58,4.58,0,0,1,223.37,56c1.24,2.28,2.53,4.55,3.76,6.83a1.81,1.81,0,0,0,1.17,1q4.11,1.44,8.24,3c.57.22.87.22,1.12-.13,1.07-1.46,2.18-2.89,3.28-4.32.84-1.08,2.13-1,3.82.2q5.4,3.87,10.8,7.78c1.7,1.23,2.36,2.57,1.95,3.93q-.83,2.79-1.69,5.55c-.12.37,0,.64.35,1.09,2.11,2.5,4.18,5,6.3,7.53a2.06,2.06,0,0,0,1,.62c2.18.3,4.36.63,6.48.79a5.57,5.57,0,0,1,3.93,2l5.74,13c0,1.35-.82,1.9-2.17,2-1.95.16-3.8.52-5.71.76-.46.06-.57.25-.54.73q.24,3.72.35,7.39a1.49,1.49,0,0,0,.7,1.24c2.17,1.8,4.32,3.63,6.48,5.46,1.61,1.37,2.12,2.7,1.51,3.93q-2,3.92-3.94,7.81c-.62,1.21-1.86,1.29-3.62.23q-3.54-2.13-7.07-4.3c-.55-.34-.86-.38-1.25-.15q-2.77,1.59-5.65,3.06c-.38.19-.46.4-.29.91.71,2.13,1.3,4.25,2.09,6.38C261.05,141.87,261,143,260,143.61Zm-47.38-45.1c5.48,12.42,19.48,22.52,31.26,22.53s16.94-10.2,11.46-22.64S235.87,75.89,224.1,75.88,207.15,86.08,212.63,98.51Z"/><polygon class="cls-12" points="531.88 141.24 587.53 189.83 577.17 212.48 521.53 163.89 531.88 141.24"/><polygon class="cls-13" points="587.59 189.83 613.62 189.83 603.2 212.48 577.17 212.48 587.59 189.83"/><polygon class="cls-14" points="557.64 140.17 614.51 189.83 588.24 189.83 531.37 140.17 557.64 140.17"/><polygon class="cls-15" points="417.02 483.74 258.66 483.87 248.84 362.93 407.21 362.81 417.02 483.74"/><polygon class="cls-16" points="258.87 406.82 405.32 406.7 407.84 437.73 261.38 437.85 258.87 406.82"/><polygon class="cls-17" points="262.14 447.18 408.59 447.06 411.11 478.09 264.66 478.2 262.14 447.18"/><polygon class="cls-18" points="255.76 368.58 402.22 368.47 404.73 399.5 258.28 399.61 255.76 368.58"/><ellipse class="cls-19" cx="274.7" cy="422.32" rx="8.91" ry="9.68" transform="translate(-208.78 280.67) rotate(-40.63)"/><ellipse class="cls-19" cx="300.3" cy="422.3" rx="8.91" ry="9.68" transform="translate(-202.59 297.34) rotate(-40.63)"/><ellipse class="cls-19" cx="278.02" cy="463.25" rx="8.91" ry="9.68" transform="translate(-234.63 292.7) rotate(-40.63)"/><ellipse class="cls-19" cx="303.63" cy="463.23" rx="8.91" ry="9.68" transform="translate(-228.45 309.37) rotate(-40.63)"/><ellipse class="cls-19" cx="271.59" cy="384.02" rx="8.91" ry="9.68" transform="translate(-184.59 269.42) rotate(-40.63)"/><ellipse class="cls-19" cx="297.2" cy="384" rx="8.91" ry="9.68" transform="translate(-178.4 286.09) rotate(-40.63)"/><ellipse class="cls-20" cx="274.7" cy="422.32" rx="4.79" ry="5.2" transform="translate(-208.78 280.67) rotate(-40.63)"/><ellipse class="cls-21" cx="300.3" cy="422.3" rx="4.79" ry="5.2" transform="translate(-202.59 297.34) rotate(-40.63)"/><ellipse class="cls-22" cx="278.02" cy="463.25" rx="4.79" ry="5.2" transform="translate(-234.63 292.71) rotate(-40.63)"/><ellipse class="cls-23" cx="271.59" cy="384.02" rx="4.79" ry="5.2" transform="translate(-184.59 269.42) rotate(-40.63)"/><ellipse class="cls-20" cx="303.63" cy="463.23" rx="4.79" ry="5.2" transform="translate(-228.45 309.37) rotate(-40.63)"/><ellipse class="cls-24" cx="297.2" cy="384" rx="4.79" ry="5.2" transform="matrix(0.76, -0.65, 0.65, 0.76, -178.4, 286.09)"/><path class="cls-25" d="M331.68,419.42l33.2,0a3,3,0,0,1,2.95,2.77h0a2.49,2.49,0,0,1-2.5,2.77l-33.2,0a3,3,0,0,1-2.95-2.76h0a2.5,2.5,0,0,1,2.5-2.78Z"/><path class="cls-25" d="M335,460.44l33.2,0a3,3,0,0,1,3,2.77h0a2.49,2.49,0,0,1-2.5,2.77l-33.2,0a3,3,0,0,1-2.95-2.77h0a2.5,2.5,0,0,1,2.5-2.77Z"/><path class="cls-25" d="M379.48,460.4H398.3a3,3,0,0,1,2.95,2.77h0a2.5,2.5,0,0,1-2.5,2.77H379.93a3,3,0,0,1-2.95-2.77h0A2.51,2.51,0,0,1,379.48,460.4Z"/><path class="cls-25" d="M376.15,419.38H395a3,3,0,0,1,2.95,2.77h0a2.49,2.49,0,0,1-2.5,2.77l-18.82,0a3,3,0,0,1-3-2.77h0A2.51,2.51,0,0,1,376.15,419.38Z"/><path class="cls-25" d="M373.06,381.25h18.82a3,3,0,0,1,2.95,2.76h0a2.5,2.5,0,0,1-2.5,2.78h0l-18.82,0a3,3,0,0,1-2.95-2.78h0A2.49,2.49,0,0,1,373.06,381.25Z"/><path class="cls-25" d="M328.59,381.29l33.2,0a3,3,0,0,1,2.95,2.77h0a2.5,2.5,0,0,1-2.49,2.78h0l-33.2,0a3,3,0,0,1-3-2.77h0A2.49,2.49,0,0,1,328.59,381.29Z"/><polygon class="cls-18" points="230.17 460.1 258.66 483.87 248.84 362.93 220.35 339.17 230.17 460.1"/><polygon class="cls-26" points="407.21 362.81 248.84 362.93 220.35 339.17 378.72 339.05 407.21 362.81"/><polygon class="cls-27" points="225.46 379.91 247.46 398.25 245.49 374.01 223.49 355.66 225.46 379.91"/><polygon class="cls-15" points="250.49 398.25 247.46 398.25 245.49 374.01 248.52 374 250.49 398.25"/><polygon class="cls-26" points="248.52 374 245.49 374.01 223.49 355.66 226.52 355.66 248.52 374"/><rect class="cls-26" x="234.3" y="358.37" width="2.76" height="20.65" transform="translate(-198.42 313.56) rotate(-50.17)"/><polygon class="cls-18" points="242.73 376.37 244.67 376.37 244.5 374.25 242.73 376.37"/><rect class="cls-26" x="234.68" y="363.02" width="2.76" height="20.65" transform="translate(-201.86 315.52) rotate(-50.17)"/><polygon class="cls-18" points="243.11 381.03 245.05 381.02 244.88 378.9 243.11 381.03"/><rect class="cls-26" x="235.06" y="367.68" width="2.76" height="20.65" transform="translate(-205.29 317.49) rotate(-50.17)"/><polygon class="cls-18" points="243.49 385.68 245.43 385.68 245.26 383.56 243.49 385.68"/><rect class="cls-26" x="235.44" y="372.33" width="2.76" height="20.65" transform="translate(-208.73 319.45) rotate(-50.17)"/><polygon class="cls-18" points="243.87 390.33 245.81 390.33 245.63 388.21 243.87 390.33"/><polygon class="cls-28" points="225.75 357.55 227.46 378.64 247.21 395.15 247.46 398.25 225.46 379.91 223.49 355.66 225.75 357.55"/><polygon class="cls-27" points="228.26 414.47 250.26 432.81 248.29 408.57 226.3 390.23 228.26 414.47"/><polygon class="cls-15" points="253.29 432.81 250.26 432.81 248.29 408.57 251.33 408.57 253.29 432.81"/><polygon class="cls-26" points="251.33 408.57 248.29 408.57 226.3 390.23 229.33 390.22 251.33 408.57"/><rect class="cls-26" x="237.11" y="392.93" width="2.76" height="20.65" transform="translate(-223.95 328.14) rotate(-50.17)"/><polygon class="cls-18" points="245.54 410.93 247.48 410.93 247.31 408.81 245.54 410.93"/><rect class="cls-26" x="237.49" y="397.59" width="2.76" height="20.65" transform="translate(-227.39 330.1) rotate(-50.17)"/><polygon class="cls-18" points="245.91 415.59 247.85 415.59 247.68 413.47 245.91 415.59"/><rect class="cls-26" x="237.86" y="402.24" width="2.76" height="20.65" transform="translate(-230.83 332.07) rotate(-50.17)"/><polygon class="cls-18" points="246.29 420.24 248.23 420.24 248.06 418.12 246.29 420.24"/><rect class="cls-26" x="238.24" y="406.9" width="2.76" height="20.65" transform="translate(-234.27 334.03) rotate(-50.17)"/><polygon class="cls-18" points="246.67 424.9 248.61 424.9 248.44 422.78 246.67 424.9"/><polygon class="cls-28" points="228.56 392.11 230.27 413.21 250.01 429.72 250.26 432.81 228.26 414.47 226.3 390.23 228.56 392.11"/><polygon class="cls-27" points="231.4 453.11 253.4 471.45 251.43 447.21 229.43 428.86 231.4 453.11"/><polygon class="cls-15" points="256.43 471.45 253.4 471.45 251.43 447.21 254.46 447.21 256.43 471.45"/><polygon class="cls-26" points="254.46 447.21 251.43 447.21 229.43 428.86 232.46 428.86 254.46 447.21"/><rect class="cls-26" x="240.24" y="431.57" width="2.76" height="20.65" transform="translate(-252.5 344.44) rotate(-50.17)"/><polygon class="cls-18" points="248.67 449.57 250.61 449.57 250.44 447.45 248.67 449.57"/><rect class="cls-26" x="240.62" y="436.22" width="2.76" height="20.65" transform="translate(-255.94 346.4) rotate(-50.17)"/><polygon class="cls-18" points="249.05 454.23 250.99 454.23 250.82 452.11 249.05 454.23"/><rect class="cls-26" x="241" y="440.88" width="2.76" height="20.65" transform="translate(-259.38 348.37) rotate(-50.17)"/><polygon class="cls-18" points="249.43 458.88 251.37 458.88 251.2 456.76 249.43 458.88"/><rect class="cls-26" x="241.38" y="445.53" width="2.76" height="20.65" transform="translate(-262.81 350.33) rotate(-50.17)"/><polygon class="cls-18" points="249.81 463.54 251.75 463.53 251.57 461.41 249.81 463.54"/><polygon class="cls-28" points="231.69 430.75 233.4 451.84 253.15 468.36 253.4 471.45 231.4 453.11 229.43 428.86 231.69 430.75"/><path class="cls-29" d="M454.57,278.88a29.28,29.28,0,0,1-12.1,25.73V324a4.3,4.3,0,0,1-4.3,4.29H412.48a4.29,4.29,0,0,1-4.29-4.29V304.59a29.3,29.3,0,0,1,18.24-53A29.54,29.54,0,0,1,454.57,278.88Z"/><rect class="cls-30" x="405.56" y="316.92" width="40.43" height="6.59" rx="3.3" transform="translate(879.13 600.02) rotate(174.74)"/><rect class="cls-31" x="405.56" y="305.42" width="40.43" height="6.59" rx="3.3" transform="translate(878.07 577.07) rotate(174.74)"/><path class="cls-32" d="M413.62,303.26s14.79-27.25,3.66-34.87-10.16,24.47,4.15,20.22,22.36-24.47,14.16-22.86-9.82,27.4-2.64,34.43"/><rect class="cls-33" x="368.14" y="265.21" width="22.74" height="5.28" rx="2.64" transform="translate(135.02 -127.12) rotate(23.03)"/><rect class="cls-34" x="383.7" y="240.08" width="22.74" height="5.28" rx="2.64" transform="translate(287.34 -208.26) rotate(45)"/><rect class="cls-35" x="455.86" y="265.21" width="22.74" height="5.28" rx="2.64" transform="translate(1002.01 331.57) rotate(156.97)"/><rect class="cls-36" x="412.93" y="230" width="22.74" height="5.28" rx="2.64" transform="translate(656.93 -191.66) rotate(90)"/><rect class="cls-37" x="443.27" y="238.81" width="22.74" height="5.28" rx="2.64" transform="translate(946.85 90.7) rotate(135)"/><path class="cls-38" d="M423.37,166.21a110,110,0,0,0-98.44,60.9,110,110,0,1,0,0,98.15,110,110,0,1,0,98.44-159ZM226.5,363.08a86.9,86.9,0,1,1,86.9-86.9A86.89,86.89,0,0,1,226.5,363.08Zm196.87,0a86.9,86.9,0,1,1,86.9-86.9A86.9,86.9,0,0,1,423.37,363.08Z"/><path class="cls-39" d="M371.87,346.31H338.56a110.17,110.17,0,0,1-13.63-20.93,109.36,109.36,0,0,0,11.54-49.07A86.77,86.77,0,0,0,371.87,346.31Z"/><path class="cls-40" d="M324.93,227.25a109.45,109.45,0,0,0-11.53,49.06,86.86,86.86,0,0,0-44.54-75.89h37.22A110,110,0,0,1,324.93,227.25Z"/><path class="cls-41" d="M173.76,274.05c3.61-1.29,7.16-2.59,10.74-3.81A2.2,2.2,0,0,0,186,268.7c1.12-2.93,2.33-5.84,3.63-8.7a2.15,2.15,0,0,0,0-2.1c-1.52-3.1-3-6.23-4.48-9.33a1.28,1.28,0,0,1,.27-1.76q3.81-3.69,7.51-7.51a1.29,1.29,0,0,1,1.76-.27c3.18,1.55,6.37,3.08,9.58,4.54a2.26,2.26,0,0,0,1.6,0c3-1.21,6-2.55,9.09-3.73a2,2,0,0,0,1.36-1.3c1.14-3.3,2.35-6.57,3.48-9.88a1.17,1.17,0,0,1,1.33-1c3.58.05,7.17,0,10.75,0a1.16,1.16,0,0,1,1.36.94c1.12,3.31,2.35,6.58,3.48,9.88a2.08,2.08,0,0,0,1.46,1.37c2.93,1.13,5.84,2.32,8.71,3.62a2.3,2.3,0,0,0,2.23,0c3.05-1.52,6.15-2.93,9.2-4.44a1.34,1.34,0,0,1,1.86.31q3.6,3.73,7.33,7.33a1.47,1.47,0,0,1,.3,2.07q-2.32,4.69-4.48,9.47a2.26,2.26,0,0,0,.09,1.59c1.22,3,2.47,6.06,3.78,9.06a2.49,2.49,0,0,0,1.18,1.25c3.31,1.25,6.66,2.39,10,3.62.38.13.88.62.88.95.06,4,0,8,0,12.08-3.53,1.25-7,2.52-10.51,3.71a2.51,2.51,0,0,0-1.74,1.75c-1.05,2.87-2.23,5.71-3.52,8.48a2.34,2.34,0,0,0,0,2.33c1.5,3.05,2.93,6.15,4.43,9.21a1.27,1.27,0,0,1-.29,1.75q-3.81,3.71-7.51,7.51a1.27,1.27,0,0,1-1.76.26c-3.17-1.55-6.36-3.08-9.58-4.54a2.29,2.29,0,0,0-1.59,0c-3,1.22-6,2.56-9.08,3.74a1.92,1.92,0,0,0-1.36,1.3c-1.14,3.3-2.36,6.57-3.49,9.87a1.17,1.17,0,0,1-1.33,1c-3.58,0-7.16,0-10.75,0a1.18,1.18,0,0,1-1.36-.94c-1.12-3.31-2.35-6.58-3.48-9.88a2.06,2.06,0,0,0-1.45-1.37c-3-1.15-5.92-2.37-8.83-3.69a2,2,0,0,0-2,0c-3.1,1.52-6.24,3-9.33,4.48a1.33,1.33,0,0,1-1.86-.3q-3.65-3.76-7.42-7.42a1.33,1.33,0,0,1-.28-1.86c1.54-3.13,3-6.31,4.53-9.44a1.84,1.84,0,0,0,0-1.75c-1.33-3-2.53-6-3.84-9a2.41,2.41,0,0,0-1.17-1.26q-4.91-1.86-9.86-3.53c-.78-.26-1.07-.57-1.06-1.41C173.79,281.87,173.76,278,173.76,274.05Zm52.77,38.1a31.75,31.75,0,1,0-31.77-31.57A31.66,31.66,0,0,0,226.53,312.15Z"/><path class="cls-42" d="M83.36,214.26l.49-.73a.14.14,0,0,0,0-.09,6.82,6.82,0,0,1-.61-1.35.08.08,0,0,0-.09-.07l-1.82-.25-.1,0-.08-3.16.55-.11,1.34-.27s.07,0,.08-.07a6.63,6.63,0,0,1,.55-1.42.07.07,0,0,0,0-.09c-.38-.49-.75-1-1.12-1.48h0l2.19-2.32.7.47.84.57a.11.11,0,0,0,.15,0,7.91,7.91,0,0,1,1.33-.59.1.1,0,0,0,.07-.09c.08-.6.16-1.21.25-1.82v-.07l3.17-.1c0,.17.07.34.1.52l.27,1.36a.09.09,0,0,0,.08.08,6.33,6.33,0,0,1,1.39.53s.07,0,.1,0l1-.75.52-.4L97,204.69c-.08.11-.16.23-.23.35l-.84,1.25a.09.09,0,0,0,0,.07,6.56,6.56,0,0,1,.62,1.38s0,0,.08.06l1.77.22.11,0,.13,3.19-.85.18-1,.22s-.06,0-.07.07a7.19,7.19,0,0,1-.53,1.4s0,.05,0,.09l1.1,1.44,0,.06L95.1,217l-.58-.38-1-.69a.11.11,0,0,0-.08,0,6.9,6.9,0,0,1-1.36.61s-.07,0-.07.09c-.09.58-.17,1.17-.25,1.76l0,.1-3.19.12c0-.26-.09-.51-.14-.76l-.21-1.1c0-.05,0-.08-.08-.09a6.55,6.55,0,0,1-1.41-.55.09.09,0,0,0-.1,0l-1.11.89-.38.3-2.32-2.18Zm2.78-.36a5.47,5.47,0,1,0-.25-7.74A5.5,5.5,0,0,0,86.14,213.9Z"/><path class="cls-43" d="M77.16,199.38a3,3,0,0,0,.07.32s0,0,0,0a2.5,2.5,0,0,1,.52.19,0,0,0,0,0,0,0l.55-.42,0,0,.86.82-.12.17c-.09.14-.19.28-.28.43s0,0,0,0a1.87,1.87,0,0,1,.23.52s0,0,0,0l.68.09h0l0,1.2-.32.06-.37.07a.08.08,0,0,0,0,0,2.42,2.42,0,0,1-.19.51s0,0,0,0l.42.55v0l-.81.86-.16-.11-.43-.28s0,0,0,0a1.89,1.89,0,0,1-.5.23s0,0,0,0l-.06.45,0,.25-1.19,0,0-.15c0-.19-.07-.37-.11-.55l0,0a1.93,1.93,0,0,1-.52-.2s0,0,0,0l-.53.41,0,0-.88-.82.18-.27.21-.33a0,0,0,0,0,0,0,3.82,3.82,0,0,1-.23-.51s0,0,0,0l-.68-.09h0l0-1.19.26,0,.45-.09a0,0,0,0,0,0,0,2.33,2.33,0,0,1,.2-.52s0,0,0,0l-.4-.54,0,0,.81-.87.24.16.35.24h0a2.66,2.66,0,0,1,.52-.23s0,0,0,0c0-.17,0-.35.07-.53l0-.18,1.18,0C77.11,199.12,77.14,199.25,77.16,199.38Zm-.64.83a2,2,0,1,0,2.12,2A2.06,2.06,0,0,0,76.52,200.21Z"/><polygon class="cls-44" points="32.82 253.96 100.87 253.96 89.72 209.15 21.68 209.15 32.82 253.96"/><path class="cls-45" d="M21.77,209.9l11,44.06h68l-.66-2.66-.31-.14c-1-.4-3,.2-4.1.09-3.93-.37-7.86-3.54-11.83-5-2.23-.8-4.5-1.91-6.62-2.86-2.87-1.29-3.44-2.64-5.71-4.45-2-1.61-4.41-1.63-6.76-2.49-4-1.47-7.33-4.52-11-6.56s-5.46-4.34-8.17-7.39c-.38-.42-1.41-.24-1.63-.51-.64-.82-.73-2-1.35-2.81-2.37-3.14-1.14-1.23-4.51-2.48-1.6-.6-1.42-2-2.51-2.51s-2.36.05-3.58-.28c-2.1-.59-4-2.13-6-2.85C24.83,210.67,23.29,210.35,21.77,209.9Z"/><path class="cls-44" d="M30.92,216.11c.37-.18.74.09,1.08.23a2,2,0,0,0,.7.27c.36,0,.57-.39.88-.44.81-.14.93,1.14.51,1.63-.38-.12-.74-.37-1.12-.47a4.74,4.74,0,0,1-.69-.11C31.79,217,32,216.25,30.92,216.11Z"/><path class="cls-44" d="M53.14,232.46c.41,0,.63.38.88.65s.31.44.52.54.69-.11,1,0c.78.21.37,1.43-.22,1.69-.3-.26-.52-.64-.83-.89a6.46,6.46,0,0,1-.58-.38C53.57,233.61,54,233,53.14,232.46Z"/><path class="cls-44" d="M32.12,228.34c.17-.35.65-.29,1-.16s.37.39.58.49c.57.28,1.44-.55,2.11-.16a.77.77,0,0,1,.11,1.08c-.24.32-.7.12-1,0C34,229.39,32.68,229.16,32.12,228.34Z"/><path class="cls-44" d="M37.29,233.08c.17-.35.65-.29,1-.16s.37.39.58.49c.57.28,1.44-.55,2.11-.16a.78.78,0,0,1,.11,1.08c-.24.32-.71.12-1,0C39.18,234.13,37.84,233.9,37.29,233.08Z"/><path class="cls-44" d="M28.8,222.92c.5-.48,1.29-.12,1.85,0s.94-.08,1.37.31C31.55,224.59,29.9,223,28.8,222.92Z"/><path class="cls-44" d="M45.84,228.51c.5-.48,1.29-.11,1.86,0s.93-.08,1.36.3C48.59,230.19,46.94,228.63,45.84,228.51Z"/><path class="cls-44" d="M34.47,220.62c.4-.06.83.27,1.2.4a5.59,5.59,0,0,0,1.21.28,3.14,3.14,0,0,0,1.25.09,3.76,3.76,0,0,0,1-.54c.17-.35-.62-.76-1-.91a1.44,1.44,0,0,0-1.1,0c-.5.11-1,.1-1.5.23S35,220.44,34.47,220.62Z"/><path class="cls-44" d="M37.14,224.23a1.63,1.63,0,0,1,1,1.52c0,.29.18.89,0,1.12-.5-.22-1,0-1.49-.23C36.88,226.13,37.84,224.84,37.14,224.23Z"/><path class="cls-44" d="M32.35,231.85c.43-.32,1.39-.62,1.77,0a1.28,1.28,0,0,1-.21,1.22c-.8.54-1-.82-1.29-1.13"/><path class="cls-44" d="M24.35,217.73c.77.32,1.94-.54,2.68-.06.36.23.27,1-.13,1.24C26,219.45,25.67,218,24.35,217.73Z"/><path class="cls-44" d="M28,218c.6.25,1.31-.14,1.94.14-.14.52-.41,1-1,.78s-.59-.83-.69-1.39"/><path class="cls-44" d="M25.8,213.94c.61.25,1.31-.14,1.94.14-.14.52-.41,1-1,.78s-.58-.83-.68-1.39"/><path class="cls-44" d="M42,225.09c.46,0,3.48-.44,3,1-.17.56-1.92.48-2.37.23S42.34,225.71,42,225.09Z"/><path class="cls-44" d="M41.54,229c.72.38,3.53.24,2.57,1.8C43.64,230.71,40.78,229.62,41.54,229Z"/><path class="cls-44" d="M59.46,242.61a1.63,1.63,0,0,1,1,1.52c0,.29.18.89,0,1.12-.5-.22-1,0-1.49-.23C59.2,244.51,60.16,243.22,59.46,242.61Z"/><path class="cls-44" d="M77.86,247.46c.72.37,3.53.23,2.57,1.8C80,249.22,77.1,248.12,77.86,247.46Z"/><path class="cls-44" d="M46.48,232.6c.43.2.69.44,1.19.37s.8-.54,1.33-.33.47.46.32.88A18.61,18.61,0,0,0,46.48,232.6Z"/><path class="cls-44" d="M84.16,248.74c.67.13.82,1,1.07,1.51s.59.72.53,1.3C84.35,252,84.68,249.71,84.16,248.74Z"/><path class="cls-44" d="M70.21,248.62c.29.36,2.34,2.62.92,3.07-.55.18-1.49-1.31-1.54-1.81S69.9,249.27,70.21,248.62Z"/><path class="cls-44" d="M75.34,244.31c.1.8,1.82,3,0,3.14C75.09,247,74.36,244.07,75.34,244.31Z"/><path class="cls-44" d="M77,250.17c.08.46,0,.82.37,1.18s.91.35,1,.9-.12.66-.54.77A19.14,19.14,0,0,0,77,250.17Z"/><path class="cls-44" d="M47.45,236.14c.89-.08,2.06-.48,2.88,0-.11.6-.08,1.12-.85.89a3.06,3.06,0,0,1-1.39-1.06C47.94,235.79,48,235.68,47.45,236.14Z"/><path class="cls-44" d="M52.38,234.09c.38.13,1,1,.33,1.12s-.24-1-.43-1.28"/><path class="cls-44" d="M51.52,230.31a.45.45,0,0,0,.56.6c.27-.11.62-.91.27-1.06"/><path class="cls-44" d="M36.34,236.36a.46.46,0,0,0,.57.61c.27-.12.61-.92.26-1.06"/><path class="cls-44" d="M59.15,236.45a4.65,4.65,0,0,0,1,.37c.24,0,.86-.09,1,.14s-.06.79-.26,1.08c-.39.58-.59.34-.81-.17A3.42,3.42,0,0,0,59.15,236.45Z"/><path class="cls-44" d="M54.67,238.72c.51.08,1,0,1.12.6a2.23,2.23,0,0,1-.48,1.3c-.94-.21-.07-1.56-.71-1.88"/><path class="cls-44" d="M50,240.83c.5.08,1,0,1.11.61a2.16,2.16,0,0,1-.48,1.29c-.93-.21-.06-1.56-.7-1.87"/><path class="cls-44" d="M90.18,251.59c.5.08,1,0,1.11.61a2.15,2.15,0,0,1-.47,1.3c-.94-.21-.07-1.56-.71-1.88"/><path class="cls-44" d="M42.86,237c.71.3,1.38.31,2.08.55.36.12.39,0,.43.35a1,1,0,0,1-.15.47c-.64.6-.87-1-1.22-1.06"/><path class="cls-44" d="M66.81,238.85a5.37,5.37,0,0,1,.94.52c.31.32,0,.91-.46,1.06-.78.23-.53-.27-.55-.73a.89.89,0,0,0-.57-.83"/><path class="cls-44" d="M62.31,240.87c.39.58,1.8.17,2.48.47.38.16.21.15.41.4a1.11,1.11,0,0,1,.32.95c-.21-.54-1.34-.6-1.8-.81S63.13,241.25,62.31,240.87Z"/><path class="cls-44" d="M68.68,243.38c.18.58,1.57.39,1.78,1s-.63,1-1.06.84c-.59-.16-.7-.27-.68-.81C68.74,244,68.88,243.63,68.68,243.38Z"/><path class="cls-44" d="M62.53,246.87c.92.11.67.78,1.09,1.39-1,.46-.66-.85-.95-1.16"/><polygon class="cls-46" points="69.91 213.64 83.23 236.72 56.59 236.72 69.91 213.64"/><circle class="cls-46" cx="55.2" cy="235.91" r="13.51"/><path class="cls-47" d="M56.47,236.71h12.1c0-.26,0-.53,0-.8a13.48,13.48,0,0,0-5.41-10.82Z"/><line class="cls-46" x1="46.84" y1="213.64" x2="28.8" y2="213.64"/><line class="cls-46" x1="47.45" y1="217.8" x2="35.1" y2="217.8"/><line class="cls-46" x1="93.98" y1="243.38" x2="75.94" y2="243.38"/><line class="cls-46" x1="94.96" y1="247.53" x2="82.61" y2="247.53"/><polygon class="cls-46" points="30.56 256.29 98.61 256.29 87.46 211.48 19.41 211.48 30.56 256.29"/><circle class="cls-48" cx="31.36" cy="204.74" r="1.28"/><circle class="cls-48" cx="27" cy="204.74" r="1.28"/><circle class="cls-48" cx="22.63" cy="204.74" r="1.28"/><circle class="cls-49" cx="454.64" cy="113.34" r="16.19"/></svg>